<svg width="25" height="25" viewBox="0 0 25 25" fill="none" xmlns="http://www.w3.org/2000/svg">
<path d="M22.8062 10.3798L13.0558 0.627978C12.4807 0.0543438 11.5505 0.061131 10.983 0.627245C10.4122 1.19946 10.4122 2.12857 10.983 2.70005L20.7348 12.4512C21.3061 13.0225 22.2348 13.0225 22.8062 12.4512C23.379 11.8783 23.379 10.9526 22.8062 10.3798Z" fill="white"/>
<path d="M10.2595 4.0481L10.1861 4.41598C9.66918 7.00182 8.41283 9.45842 6.71356 11.4495L12.0186 16.7545C14.0094 15.0556 16.4322 13.7655 19.0181 13.2479L19.3867 13.1745L10.2595 4.0481Z" fill="white"/>
<path d="M5.74096 12.5483L2.11532 16.1732C1.25863 17.0299 1.25507 18.4207 2.11532 19.281L4.18671 21.3524C5.0434 22.2091 6.43423 22.2126 7.29448 21.3524L10.9198 17.7271L5.74096 12.5483ZM6.25884 18.2453C5.97275 18.5314 5.50923 18.5314 5.22314 18.2453C4.93706 17.9593 4.93706 17.4957 5.22314 17.2097L6.25884 16.174C6.54492 15.8879 7.00845 15.8879 7.29453 16.174C7.58062 16.46 7.58062 16.9236 7.29453 17.2097L6.25884 18.2453Z" fill="white"/>
<path d="M13.9779 21.7421L14.9742 20.7458C15.8345 19.8856 15.8317 18.4948 14.9743 17.6388L14.2342 16.8982C13.8252 17.173 13.4346 17.4715 13.0548 17.7901L13.9386 18.6752C14.224 18.9591 14.226 19.4212 13.9386 19.7101L12.9258 20.7229L11.4374 19.2809L9.36591 21.3524L12.689 24.5725C13.2561 25.141 14.1872 25.1442 14.7597 24.5717C15.3312 24.0002 15.3312 23.0711 14.7597 22.4996L13.9779 21.7421Z" fill="white"/>
<path d="M16.9367 0C16.5319 0 16.2043 0.327589 16.2043 0.732423V2.19727C16.2043 2.6021 16.5319 2.92969 16.9367 2.92969C17.3416 2.92969 17.6692 2.6021 17.6692 2.19727V0.732423C17.6692 0.327589 17.3416 0 16.9367 0Z" fill="white"/>
<path d="M22.7961 5.85939H21.3313C20.9265 5.85939 20.5989 6.18698 20.5989 6.59181C20.5989 6.99665 20.9265 7.32424 21.3313 7.32424H22.7961C23.201 7.32424 23.5286 6.99665 23.5286 6.59181C23.5286 6.18698 23.201 5.85939 22.7961 5.85939Z" fill="white"/>
<path d="M21.8491 1.67939C21.563 1.39331 21.0995 1.39331 20.8134 1.67939L19.3485 3.14424C19.0625 3.43032 19.0625 3.89385 19.3485 4.17993C19.6346 4.46602 20.0981 4.46607 20.3842 4.17993L21.8491 2.71509C22.1352 2.429 22.1352 1.96548 21.8491 1.67939Z" fill="white"/>
</svg>
